<?xml version="1.0" encoding="UTF-8"?>
<!DOCTYPE svg PUBLIC "-//W3C//DTD SVG 1.1//EN" "http://www.w3.org/Graphics/SVG/1.1/DTD/svg11.dtd">
<!-- Creator: CorelDRAW 2017 -->
<svg xmlns="http://www.w3.org/2000/svg" xml:space="preserve" width="362px" height="121px" version="1.1" style="shape-rendering:geometricPrecision; text-rendering:geometricPrecision; image-rendering:optimizeQuality; fill-rule:evenodd; clip-rule:evenodd"
viewBox="0 0 61.37 20.52"
 xmlns:xlink="http://www.w3.org/1999/xlink">
 <defs>
  <style type="text/css">
   <![CDATA[
    .fil1 {fill:#0075BF}
    .fil2 {fill:#0075BF}
    .fil0 {fill:#EF4724}
   ]]>
  </style>
 </defs>
 <g id="Layer_x0020_1">
  <metadata id="CorelCorpID_0Corel-Layer"/>
  <g id="_645572856">
   <g>
    <path class="fil0" d="M15.81 12.3c0,0.49 1.21,2.68 1.5,3.26 0.09,0.18 0.14,0.33 0.23,0.52l1.82 3.64c0.22,0.44 0.27,0.8 0.84,0.8 0.5,0 0.75,-0.82 1.09,-1.49 0.24,-0.49 2.54,-4.99 2.61,-5.29l0.12 0c0.1,0.39 2.27,4.66 2.56,5.23 0.51,1.03 0.57,1.55 1.21,1.55 0.52,0 0.92,-1.15 1.27,-1.87 0.36,-0.71 0.7,-1.39 1.05,-2.09 0.35,-0.7 0.69,-1.37 1.04,-2.09 0.19,-0.37 0.35,-0.69 0.53,-1.04 0.21,-0.42 0.69,-1.13 0.27,-1.53 -0.77,-0.72 -1.27,0.76 -1.55,1.32 -0.24,0.49 -2.54,4.99 -2.61,5.29l-2.7 -5.27c-0.31,-0.63 -0.6,-1.51 -1.13,-1.51 -0.6,0 -0.91,1.04 -1.13,1.51l-2.63 5.33c-0.01,-0.01 -0.03,-0.04 -0.03,-0.03l-0.1 -0.16c-0.03,-0.06 -0.06,-0.12 -0.1,-0.21l-2.89 -5.77c-0.16,-0.32 -0.25,-0.67 -0.71,-0.67 -0.31,0 -0.56,0.26 -0.56,0.57z"/>
    <path class="fil0" d="M56.96 12.93c1.54,0 2.77,1.08 3.13,2.63l-6.21 0c0.07,-0.76 0.54,-1.32 1.02,-1.8 0.5,-0.51 1.36,-0.83 2.06,-0.83zm-0.25 7.59c1.15,0 1.8,-0.12 2.76,-0.76 0.39,-0.26 1.08,-0.75 0.67,-1.3 -0.53,-0.73 -1.21,0.25 -1.63,0.47 -1.04,0.54 -2.11,0.54 -3.12,-0.05 -0.69,-0.4 -1.44,-1.3 -1.51,-2.13l6.9 0c1.47,0 0.14,-5.02 -3.7,-5.02 -1.86,0 -3.24,0.92 -4.05,2.53 -0.14,0.28 -0.21,0.46 -0.29,0.79 -0.19,0.76 -0.07,0.49 -0.15,0.98 -0.03,0.15 0.06,0.79 0.09,0.93 0.17,0.83 0.51,1.58 1.09,2.16 0.19,0.19 0.34,0.37 0.55,0.52 0.66,0.45 1.5,0.88 2.39,0.88z"/>
    <path class="fil0" d="M34.38 16.12c0,-0.36 0.12,-0.93 0.29,-1.27 0.18,-0.36 0.38,-0.68 0.66,-0.97 0.78,-0.77 1.81,-1.08 2.91,-0.87 0.59,0.12 1.18,0.47 1.58,0.87 0.29,0.3 0.45,0.55 0.64,0.93 0.32,0.63 0.36,1.28 0.23,1.98 -0.11,0.56 -0.47,1.18 -0.84,1.55 -2.09,2.06 -4.91,0.6 -5.38,-1.5 -0.03,-0.15 -0.09,-0.59 -0.09,-0.72zm-1.2 -0.18c0,0.95 0.07,1.18 0.39,2 0.14,0.36 0.58,1 0.85,1.27 1.29,1.31 3.39,1.71 5.06,0.89 0.13,-0.07 0.2,-0.1 0.33,-0.17 0.12,-0.08 0.25,-0.15 0.35,-0.22 0.23,-0.17 0.41,-0.38 0.61,-0.51 0,0.77 -0.08,1.32 0.63,1.32 0.2,0 0.43,-0.13 0.51,-0.25 0.21,-0.37 0.12,-2.96 0.12,-3.58 0,-1.24 -0.15,-1.85 -0.65,-2.8 -0.07,-0.14 -0.14,-0.24 -0.22,-0.35 -0.1,-0.13 -0.17,-0.23 -0.28,-0.35 -1.33,-1.39 -3.44,-1.9 -5.1,-1.06 -0.29,0.14 -0.43,0.21 -0.69,0.38 -1.09,0.73 -1.91,2.08 -1.91,3.43z"/>
    <path class="fil0" d="M42.72 12.36c0,0.25 2.73,5.59 3.07,6.27 0.18,0.36 0.34,0.68 0.52,1.05 0.27,0.53 0.27,0.84 0.86,0.84 0.45,0 0.56,-0.5 0.73,-0.84l2.09 -4.18c0.3,-0.59 1.51,-2.7 1.51,-3.2 0,-0.37 -0.34,-0.57 -0.56,-0.57 -0.58,0 -0.77,0.73 -1.15,1.49l-1.76 3.51c-0.16,0.32 -0.28,0.56 -0.44,0.88 -0.13,0.25 -0.36,0.65 -0.42,0.9 -0.28,-0.21 -2.89,-5.59 -3.13,-6.09 -0.15,-0.29 -0.27,-0.69 -0.69,-0.69 -0.4,0 -0.63,0.34 -0.63,0.63z"/>
   </g>
   <g>
    <path class="fil0" d="M0 4.21l0 4.01c0,0.61 1.2,1.01 1.19,-0.25 0,-1.04 -0.04,-3.42 0.08,-4.19 0.33,-2.1 3.16,-3.52 5.18,-1.82 1.39,1.18 1.14,2.78 1.14,4.5 0,0.35 -0.07,1.82 0.08,2.05 0.23,0.36 1.11,0.53 1.18,-0.48 0.11,-1.74 -0.38,-3.96 0.4,-5.24 0.11,-0.2 0.18,-0.24 0.3,-0.39 1.73,-2.21 5.08,-1.1 5.54,1.33 0.15,0.73 0.1,3.16 0.09,4.18 0,0.36 -0.03,0.64 0.27,0.8 0.4,0.21 0.92,-0.02 0.92,-0.49 0,-1.2 0.12,-3.86 -0.14,-4.88 -0.08,-0.35 -0.13,-0.46 -0.27,-0.79 -0.16,-0.37 -0.36,-0.67 -0.61,-0.96 -0.12,-0.14 -0.12,-0.19 -0.25,-0.32 -0.2,-0.21 -0.93,-0.71 -1.23,-0.84 -1.43,-0.61 -2.89,-0.61 -4.22,0.25 -0.13,0.08 -0.3,0.19 -0.41,0.28 -0.66,0.57 -0.91,1.06 -1.09,1.18 -0.17,-0.67 -1.54,-1.66 -2.35,-1.91 -1.07,-0.33 -2.21,-0.33 -3.21,0.17 -0.28,0.14 -0.43,0.21 -0.68,0.38l-0.61 0.46c-0.14,0.13 -0.12,0.16 -0.22,0.28 -0.59,0.75 -1.08,1.63 -1.08,2.69z"/>
    <path class="fil0" d="M19.38 4.39c0,-0.12 0.06,-0.5 0.09,-0.66 0.04,-0.24 0.11,-0.42 0.2,-0.61 0.82,-1.66 2.68,-2.38 4.19,-1.63 1.41,0.7 2.14,2.01 1.84,3.57 -0.52,2.66 -4.44,3.76 -6,0.65 -0.18,-0.34 -0.32,-0.9 -0.32,-1.32zm-1.19 -0.18c0,1.17 0.27,2.11 0.99,2.96 0.45,0.54 0.72,0.81 1.46,1.18 1.16,0.58 2.68,0.59 3.85,0.02 0.94,-0.47 0.8,-0.57 1.29,-0.9 0,0.77 -0.09,1.32 0.63,1.32 0.52,0 0.63,-0.43 0.63,-0.88 0,-1.48 0.13,-3.73 -0.29,-4.98 -0.1,-0.29 -0.23,-0.51 -0.36,-0.77 -1.33,-2.56 -5.36,-2.88 -7.12,-0.64 -0.33,0.43 -0.36,0.44 -0.64,0.99 -0.21,0.42 -0.44,1.07 -0.44,1.7z"/>
    <path class="fil0" d="M53.32 4.39c0,-0.12 0.05,-0.5 0.08,-0.66 0.05,-0.24 0.12,-0.42 0.21,-0.61 0.1,-0.21 0.17,-0.34 0.3,-0.52 0.31,-0.42 0.37,-0.48 0.78,-0.79 1.24,-0.94 2.98,-0.75 4.07,0.34 2.08,2.09 0.43,5.44 -2.18,5.44 -1.02,0 -1.75,-0.4 -2.27,-0.92 -0.59,-0.59 -0.99,-1.41 -0.99,-2.28zm-1.19 -0.18c0,1.25 0.38,2.41 1.24,3.27 0.34,0.35 0.76,0.64 1.2,0.87 1.42,0.71 3.26,0.55 4.53,-0.37 0.24,-0.17 0.42,-0.38 0.62,-0.51 0,0.77 -0.09,1.32 0.62,1.32 0.52,0 0.63,-0.43 0.63,-0.88 0,-1.48 0.14,-3.73 -0.29,-4.98 -0.89,-2.63 -4.12,-3.83 -6.65,-2.15 -1.08,0.73 -1.9,2.08 -1.9,3.43z"/>
    <path class="fil0" d="M41.53 4.21l0 4.01c0,0.61 1.2,1.01 1.19,-0.25 -0.01,-1.04 -0.05,-3.42 0.07,-4.19 0.28,-1.73 2.39,-3.35 4.74,-2.13 0.67,0.35 1.35,1.27 1.5,2.08 0.23,1.17 -0.05,4.44 0.17,4.78 0.23,0.35 1.17,0.57 1.17,-0.6 0,-1.48 0.14,-3.73 -0.29,-4.98 -0.1,-0.29 -0.22,-0.51 -0.36,-0.77 -0.95,-1.83 -3.66,-2.74 -5.6,-1.76 -0.28,0.14 -0.43,0.21 -0.69,0.38 -0.46,0.31 -0.77,0.6 -1.08,1.05 -0.44,0.67 -0.82,1.47 -0.82,2.38z"/>
    <path class="fil0" d="M28.73 4.21l0 4.01c0,0.61 1.2,1.01 1.19,-0.25 0,-1.04 -0.04,-3.42 0.08,-4.19 0.27,-1.72 2.36,-3.3 4.61,-2.19 0.4,0.2 0.81,0.54 1.05,0.9 0.26,0.38 0.5,0.78 0.58,1.29 0.06,0.37 -0.06,1.24 0.71,1.24 0.3,0 0.56,-0.28 0.6,-0.59 0.07,-0.45 -0.24,-1.51 -0.48,-1.98 -0.17,-0.35 -0.24,-0.46 -0.47,-0.78 -1.37,-1.86 -4.08,-2.14 -5.96,-0.89 -0.13,0.09 -0.18,0.11 -0.3,0.21 -0.13,0.12 -0.19,0.14 -0.31,0.25 -0.14,0.13 -0.12,0.16 -0.22,0.28 -0.11,0.14 -0.14,0.14 -0.25,0.31 -0.45,0.67 -0.83,1.47 -0.83,2.38z"/>
    <path class="fil0" d="M38.58 0.63l0 7.59c0,0.73 1.19,0.79 1.19,0l0 -7.65c0,-0.76 -1.19,-0.75 -1.19,0.06z"/>
   </g>
   <g>
    <path class="fil1" d="M0 15.77c0,0.57 0.71,0.56 0.88,0.19 0.21,-0.49 0.61,-2.44 1.92,-2.41 1.42,-0.04 1.27,2.65 3.56,2.68 1.68,0 1.93,-2.69 3.49,-2.68 1.27,0.01 1.63,1.5 2.06,2.47 0.17,0.22 0.78,0.38 0.75,-0.32 0,-1.4 -1.45,-3.42 -2.83,-3.42 -2.03,0.04 -2.06,2.93 -3.46,2.95 -1.48,0.01 -2.01,-2.95 -3.49,-2.95 -1.72,0 -2.88,3.05 -2.88,3.49z"/>
    <path class="fil2" d="M15.98 16.45c0,-0.57 -0.71,-0.56 -0.88,-0.19 -0.22,0.49 -0.61,2.44 -1.92,2.41 -1.42,0.04 -1.27,-2.64 -3.56,-2.68 -1.68,0.01 -1.94,2.69 -3.49,2.68 -1.28,-0.01 -1.64,-1.5 -2.06,-2.46 -0.17,-0.23 -0.78,-0.39 -0.76,0.31 0,1.4 1.46,3.42 2.84,3.42 2.03,-0.04 2.06,-2.93 3.45,-2.95 1.49,0 2.01,2.95 3.5,2.95 1.72,0 2.88,-3.05 2.88,-3.49z"/>
   </g>
  </g>
 </g>
</svg>
